<svg width="121" height="16" viewBox="0 0 121 16" fill="none" xmlns="http://www.w3.org/2000/svg">
<g clip-path="url(#clip0_6711_2)">
<path d="M0 2C0 0.89543 0.89543 0 2 0H14C15.1046 0 16 0.89543 16 2V14C16 15.1046 15.1046 16 14 16H2C0.89543 16 0 15.1046 0 14V2Z" fill="#4353FF"/>
<path d="M10.836 6.70399C10.836 6.70399 10.024 9.24799 9.96395 9.46399C9.93995 9.25199 9.34795 4.67999 9.34795 4.67999C7.96395 4.67999 7.22795 5.66399 6.83595 6.70399C6.83595 6.70399 5.84795 9.25599 5.76795 9.46799C5.76395 9.26799 5.61595 6.72799 5.61595 6.72799C5.53195 5.45199 4.36795 4.67999 3.42395 4.67999L4.55995 11.604C6.00795 11.6 6.78795 10.62 7.19595 9.57599C7.19595 9.57599 8.06395 7.32399 8.09995 7.22399C8.10795 7.31999 8.72395 11.604 8.72395 11.604C10.176 11.604 10.96 10.688 11.38 9.68399L13.4159 4.67999C11.9799 4.67999 11.224 5.65999 10.836 6.70399Z" fill="white"/>
</g>
<g clip-path="url(#clip1_6711_2)">
<path d="M24.05 12.352H25.49V5.87197L28.094 12.352H28.61L31.166 5.87197V12.352H32.762V3.77197H30.65L28.442 9.62797L26.186 3.77197H24.05V12.352Z" fill="#333333"/>
<path d="M36.1913 12.472C37.1513 12.472 37.7033 12.124 38.1113 11.584V12.352H39.5393V8.23597C39.5393 6.51997 38.4353 5.94397 37.0313 5.94397C35.6273 5.94397 34.4633 6.55597 34.3433 8.01997H35.7473C35.8193 7.39597 36.1913 7.03597 36.9473 7.03597C37.7993 7.03597 38.0873 7.45597 38.0873 8.29597V8.61997H37.3073C35.5073 8.61997 34.0913 9.14797 34.0913 10.612C34.0913 11.92 35.0393 12.472 36.1913 12.472ZM36.5393 11.428C35.8193 11.428 35.5313 11.08 35.5313 10.552C35.5313 9.78397 36.2393 9.53197 37.3433 9.53197H38.0873V10.156C38.0873 10.96 37.4273 11.428 36.5393 11.428V11.428Z" fill="#333333"/>
<path d="M43.5554 12.472C44.4794 12.472 45.2834 11.92 45.6194 11.296V12.352H47.0714V3.172H45.6194V7.036C45.2714 6.412 44.6354 5.944 43.6154 5.944C41.9834 5.944 40.7954 7.216 40.7954 9.22V9.316C40.7954 11.356 41.9834 12.472 43.5554 12.472ZM43.9154 11.32C42.9794 11.32 42.2834 10.66 42.2834 9.28V9.184C42.2834 7.828 42.9074 7.084 43.9754 7.084C45.0314 7.084 45.6674 7.768 45.6674 9.148V9.244C45.6674 10.648 44.9234 11.32 43.9154 11.32Z" fill="#333333"/>
<path d="M51.5572 12.472C53.1652 12.472 54.2332 11.752 54.4372 10.432H53.0332C52.9252 11.044 52.4692 11.392 51.5932 11.392C50.5132 11.392 49.9132 10.72 49.8652 9.53197H54.4612V9.11197C54.4612 6.86797 53.0572 5.94397 51.4972 5.94397C49.7092 5.94397 48.3772 7.23997 48.3772 9.18397V9.27997C48.3772 11.26 49.7092 12.472 51.5572 12.472V12.472ZM49.8892 8.55997C50.0332 7.58797 50.6212 6.99997 51.4972 6.99997C52.3972 6.99997 52.9492 7.47997 53.0212 8.55997H49.8892Z" fill="#333333"/>
<path d="M58.6536 12.352H60.1056V6.07598H58.6536V12.352ZM59.3616 5.04398C59.8416 5.04398 60.2256 4.68398 60.2256 4.21598C60.2256 3.73598 59.8416 3.37598 59.3616 3.37598C58.8816 3.37598 58.4976 3.73598 58.4976 4.21598C58.4976 4.68398 58.8816 5.04398 59.3616 5.04398Z" fill="#333333"/>
<path d="M61.8754 12.352H63.3274V8.65597C63.3274 7.65997 63.9874 7.15597 64.8034 7.15597C65.6674 7.15597 66.0514 7.58797 66.0514 8.53597V12.352H67.5034V8.40397C67.5034 6.67597 66.6154 5.94397 65.3554 5.94397C64.3234 5.94397 63.6274 6.45997 63.3274 7.07197V6.07597H61.8754V12.352V12.352Z" fill="#333333"/>
<path d="M73.6195 12.352H75.1435L76.8835 6.09997L78.5755 12.352H80.1715L82.3195 3.77197H80.8315L79.2955 10.108L77.5915 3.77197H76.2715L74.6035 10.072L73.1155 3.77197H71.4835L73.6195 12.352V12.352Z" fill="#333333"/>
<path d="M85.7174 12.472C87.3254 12.472 88.3934 11.752 88.5974 10.432H87.1934C87.0854 11.044 86.6294 11.392 85.7534 11.392C84.6734 11.392 84.0734 10.72 84.0254 9.53197H88.6213V9.11197C88.6213 6.86797 87.2174 5.94397 85.6574 5.94397C83.8694 5.94397 82.5374 7.23997 82.5374 9.18397V9.27997C82.5374 11.26 83.8694 12.472 85.7174 12.472ZM84.0494 8.55997C84.1934 7.58797 84.7814 6.99997 85.6574 6.99997C86.5574 6.99997 87.1094 7.47997 87.1814 8.55997H84.0494Z" fill="#333333"/>
<path d="M93.4223 12.472C95.0423 12.472 96.2063 11.248 96.2063 9.232V9.136C96.2063 7.108 94.9943 5.944 93.4223 5.944C92.4983 5.944 91.7183 6.484 91.3703 7.084V3.172H89.9183V12.352H91.3703V11.344C91.7063 11.98 92.4263 12.472 93.4223 12.472ZM93.0623 11.32C92.0063 11.32 91.3223 10.66 91.3223 9.256V9.16C91.3223 7.768 92.0423 7.084 93.0503 7.084C93.9983 7.084 94.7183 7.768 94.7183 9.16V9.256C94.7183 10.6 94.1303 11.32 93.0623 11.32Z" fill="#333333"/>
<path d="M97.7641 12.352H99.2161V7.168H100.644V6.076H99.2161V5.176C99.2161 4.636 99.4561 4.252 100.032 4.252C100.296 4.252 100.476 4.276 100.644 4.348V3.22C100.416 3.148 100.212 3.112 99.8521 3.112C98.5201 3.112 97.7641 3.856 97.7641 5.236V6.076H96.9121V7.168H97.7641V12.352V12.352Z" fill="#333333"/>
<path d="M101.732 12.352H103.184V3.172H101.732V12.352Z" fill="#333333"/>
<path d="M107.761 11.344C106.657 11.344 106.021 10.54 106.021 9.25597V9.15997C106.021 7.86397 106.681 7.08397 107.761 7.08397C108.841 7.08397 109.489 7.87597 109.489 9.17197V9.25597C109.489 10.54 108.841 11.344 107.761 11.344ZM107.749 12.472C109.597 12.472 110.977 11.2 110.977 9.24397V9.14797C110.977 7.22797 109.597 5.94397 107.761 5.94397C105.913 5.94397 104.533 7.23997 104.533 9.18397V9.27997C104.533 11.188 105.901 12.472 107.749 12.472Z" fill="#333333"/>
<path d="M113.41 12.352H114.898L116.17 8.12799L117.334 12.352H118.81L120.778 6.07599H119.362L118.054 10.612L116.83 6.07599H115.618L114.286 10.612L113.038 6.07599H111.49L113.41 12.352Z" fill="#333333"/>
</g>
<defs>
<clipPath id="clip0_6711_2">
<rect width="16" height="16" fill="white"/>
</clipPath>
<clipPath id="clip1_6711_2">
<rect width="97" height="10" fill="white" transform="translate(24 3)"/>
</clipPath>
</defs>
</svg>
